<mxfile host="app.diagrams.net" agent="Mozilla/5.0 (Windows NT 10.0; Win64; x64) AppleWebKit/537.36 (KHTML, like Gecko) Chrome/122.0.0.0 Safari/537.36" version="24.8.6">
  <diagram id="DzLsgyPNC4y2OptwUkxq" name="Page-1">
    <mxGraphModel dx="1687" dy="1009" grid="1" gridSize="10" guides="1" tooltips="1" connect="1" arrows="1" fold="1" page="1" pageScale="1" pageWidth="850" pageHeight="1100" math="0" shadow="0">
      <root>
        <mxCell id="0" />
        <mxCell id="1" parent="0" />
        <mxCell id="jF6Baknl4ynv4NxAoaoa-1" style="edgeStyle=orthogonalEdgeStyle;rounded=0;orthogonalLoop=1;jettySize=auto;html=1;exitX=0.5;exitY=1;exitDx=0;exitDy=0;entryX=0.5;entryY=0;entryDx=0;entryDy=0;fontStyle=1;fontSize=13;" parent="1" source="jF6Baknl4ynv4NxAoaoa-3" target="jF6Baknl4ynv4NxAoaoa-8" edge="1">
          <mxGeometry relative="1" as="geometry" />
        </mxCell>
        <mxCell id="jF6Baknl4ynv4NxAoaoa-2" value="&quot;start&quot;" style="edgeLabel;html=1;align=center;verticalAlign=middle;resizable=0;points=[];fontStyle=1;fontSize=13;" parent="jF6Baknl4ynv4NxAoaoa-1" vertex="1" connectable="0">
          <mxGeometry x="-0.12" y="1" relative="1" as="geometry">
            <mxPoint as="offset" />
          </mxGeometry>
        </mxCell>
        <mxCell id="jF6Baknl4ynv4NxAoaoa-3" value="/cmd" style="rhombus;whiteSpace=wrap;html=1;fillColor=#e1d5e7;strokeColor=#9673a6;fontStyle=1;fontSize=13;" parent="1" vertex="1">
          <mxGeometry x="410" y="230" width="80" height="30" as="geometry" />
        </mxCell>
        <mxCell id="jF6Baknl4ynv4NxAoaoa-4" style="edgeStyle=orthogonalEdgeStyle;rounded=0;orthogonalLoop=1;jettySize=auto;html=1;entryX=0.5;entryY=0;entryDx=0;entryDy=0;fontStyle=1;fontSize=13;" parent="1" source="jF6Baknl4ynv4NxAoaoa-5" target="jF6Baknl4ynv4NxAoaoa-3" edge="1">
          <mxGeometry relative="1" as="geometry" />
        </mxCell>
        <mxCell id="jF6Baknl4ynv4NxAoaoa-5" value="&lt;span style=&quot;font-size: 13px;&quot;&gt;&lt;u style=&quot;font-size: 13px;&quot;&gt;Idle&lt;/u&gt;&lt;/span&gt;" style="swimlane;fontStyle=1;childLayout=stackLayout;horizontal=1;startSize=30;horizontalStack=0;resizeParent=1;resizeParentMax=0;resizeLast=0;collapsible=1;marginBottom=0;whiteSpace=wrap;html=1;fillColor=#dae8fc;strokeColor=#6c8ebf;fontSize=13;" parent="1" vertex="1">
          <mxGeometry x="380" y="120" width="140" height="90" as="geometry" />
        </mxCell>
        <mxCell id="jF6Baknl4ynv4NxAoaoa-6" value="state = &quot;idle&quot;" style="text;strokeColor=none;fillColor=none;align=left;verticalAlign=middle;spacingLeft=4;spacingRight=4;overflow=hidden;points=[[0,0.5],[1,0.5]];portConstraint=eastwest;rotatable=0;whiteSpace=wrap;html=1;fontStyle=1;fontSize=13;" parent="jF6Baknl4ynv4NxAoaoa-5" vertex="1">
          <mxGeometry y="30" width="140" height="30" as="geometry" />
        </mxCell>
        <mxCell id="jF6Baknl4ynv4NxAoaoa-7" value="velocity = [0,0]" style="text;strokeColor=none;fillColor=none;align=left;verticalAlign=middle;spacingLeft=4;spacingRight=4;overflow=hidden;points=[[0,0.5],[1,0.5]];portConstraint=eastwest;rotatable=0;whiteSpace=wrap;html=1;fontStyle=1;fontSize=13;" parent="jF6Baknl4ynv4NxAoaoa-5" vertex="1">
          <mxGeometry y="60" width="140" height="30" as="geometry" />
        </mxCell>
        <mxCell id="jF6Baknl4ynv4NxAoaoa-8" value="&lt;span style=&quot;font-size: 13px;&quot;&gt;&lt;u style=&quot;font-size: 13px;&quot;&gt;Searching&lt;/u&gt;&lt;/span&gt;" style="swimlane;fontStyle=1;childLayout=stackLayout;horizontal=1;startSize=30;horizontalStack=0;resizeParent=1;resizeParentMax=0;resizeLast=0;collapsible=1;marginBottom=0;whiteSpace=wrap;html=1;fillColor=#dae8fc;strokeColor=#6c8ebf;fontSize=13;" parent="1" vertex="1">
          <mxGeometry x="380" y="310" width="140" height="90" as="geometry" />
        </mxCell>
        <mxCell id="jF6Baknl4ynv4NxAoaoa-9" value="state = &quot;searching&quot;" style="text;strokeColor=none;fillColor=none;align=left;verticalAlign=middle;spacingLeft=4;spacingRight=4;overflow=hidden;points=[[0,0.5],[1,0.5]];portConstraint=eastwest;rotatable=0;whiteSpace=wrap;html=1;fontStyle=1;fontSize=13;" parent="jF6Baknl4ynv4NxAoaoa-8" vertex="1">
          <mxGeometry y="30" width="140" height="30" as="geometry" />
        </mxCell>
        <mxCell id="jF6Baknl4ynv4NxAoaoa-10" value="velocity = [v,0]" style="text;strokeColor=none;fillColor=none;align=left;verticalAlign=middle;spacingLeft=4;spacingRight=4;overflow=hidden;points=[[0,0.5],[1,0.5]];portConstraint=eastwest;rotatable=0;whiteSpace=wrap;html=1;fontStyle=1;fontSize=13;" parent="jF6Baknl4ynv4NxAoaoa-8" vertex="1">
          <mxGeometry y="60" width="140" height="30" as="geometry" />
        </mxCell>
        <mxCell id="jF6Baknl4ynv4NxAoaoa-11" style="edgeStyle=orthogonalEdgeStyle;rounded=0;orthogonalLoop=1;jettySize=auto;html=1;exitX=1;exitY=0.5;exitDx=0;exitDy=0;entryX=0;entryY=0.5;entryDx=0;entryDy=0;fontStyle=1;fontSize=13;" parent="1" source="jF6Baknl4ynv4NxAoaoa-12" target="jF6Baknl4ynv4NxAoaoa-15" edge="1">
          <mxGeometry relative="1" as="geometry" />
        </mxCell>
        <mxCell id="jF6Baknl4ynv4NxAoaoa-12" value="Request Image" style="rounded=1;whiteSpace=wrap;html=1;fontStyle=1;fontSize=13;" parent="1" vertex="1">
          <mxGeometry x="570" y="340" width="60" height="30" as="geometry" />
        </mxCell>
        <mxCell id="jF6Baknl4ynv4NxAoaoa-13" style="edgeStyle=orthogonalEdgeStyle;rounded=0;orthogonalLoop=1;jettySize=auto;html=1;exitX=1;exitY=0.5;exitDx=0;exitDy=0;entryX=0;entryY=0.5;entryDx=0;entryDy=0;fontStyle=1;fontSize=13;" parent="1" source="jF6Baknl4ynv4NxAoaoa-9" target="jF6Baknl4ynv4NxAoaoa-12" edge="1">
          <mxGeometry relative="1" as="geometry" />
        </mxCell>
        <mxCell id="jF6Baknl4ynv4NxAoaoa-14" style="edgeStyle=orthogonalEdgeStyle;rounded=0;orthogonalLoop=1;jettySize=auto;html=1;exitX=0.5;exitY=1;exitDx=0;exitDy=0;entryX=0.5;entryY=0;entryDx=0;entryDy=0;fontStyle=1;fontSize=13;" parent="1" source="jF6Baknl4ynv4NxAoaoa-15" target="jF6Baknl4ynv4NxAoaoa-20" edge="1">
          <mxGeometry relative="1" as="geometry" />
        </mxCell>
        <mxCell id="jF6Baknl4ynv4NxAoaoa-15" value="Inference" style="rounded=1;whiteSpace=wrap;html=1;fontStyle=1;fontSize=13;" parent="1" vertex="1">
          <mxGeometry x="662.5" y="340" width="60" height="30" as="geometry" />
        </mxCell>
        <mxCell id="jF6Baknl4ynv4NxAoaoa-16" style="edgeStyle=orthogonalEdgeStyle;rounded=0;orthogonalLoop=1;jettySize=auto;html=1;exitX=0;exitY=0.5;exitDx=0;exitDy=0;entryX=0.5;entryY=1;entryDx=0;entryDy=0;fontStyle=1;fontSize=13;" parent="1" source="jF6Baknl4ynv4NxAoaoa-20" target="jF6Baknl4ynv4NxAoaoa-12" edge="1">
          <mxGeometry relative="1" as="geometry" />
        </mxCell>
        <mxCell id="jF6Baknl4ynv4NxAoaoa-17" value="No" style="edgeLabel;html=1;align=center;verticalAlign=middle;resizable=0;points=[];fontStyle=1;fontSize=13;" parent="jF6Baknl4ynv4NxAoaoa-16" vertex="1" connectable="0">
          <mxGeometry x="-0.4914" y="-1" relative="1" as="geometry">
            <mxPoint x="-1" y="-14" as="offset" />
          </mxGeometry>
        </mxCell>
        <mxCell id="jF6Baknl4ynv4NxAoaoa-18" style="edgeStyle=orthogonalEdgeStyle;rounded=0;orthogonalLoop=1;jettySize=auto;html=1;exitX=0.5;exitY=1;exitDx=0;exitDy=0;entryX=1;entryY=0.5;entryDx=0;entryDy=0;fontStyle=1;fontSize=13;" parent="1" source="jF6Baknl4ynv4NxAoaoa-20" target="jF6Baknl4ynv4NxAoaoa-23" edge="1">
          <mxGeometry relative="1" as="geometry" />
        </mxCell>
        <mxCell id="jF6Baknl4ynv4NxAoaoa-19" value="Yes" style="edgeLabel;html=1;align=center;verticalAlign=middle;resizable=0;points=[];fontStyle=1;fontSize=13;" parent="jF6Baknl4ynv4NxAoaoa-18" vertex="1" connectable="0">
          <mxGeometry x="-0.7893" y="1" relative="1" as="geometry">
            <mxPoint x="-1" y="-8" as="offset" />
          </mxGeometry>
        </mxCell>
        <mxCell id="jF6Baknl4ynv4NxAoaoa-20" value="Valid Keypoints?" style="rhombus;whiteSpace=wrap;html=1;fillColor=#e1d5e7;strokeColor=#9673a6;fontStyle=1;fontSize=13;" parent="1" vertex="1">
          <mxGeometry x="620" y="400" width="145" height="50" as="geometry" />
        </mxCell>
        <mxCell id="jF6Baknl4ynv4NxAoaoa-21" style="edgeStyle=orthogonalEdgeStyle;rounded=0;orthogonalLoop=1;jettySize=auto;html=1;fontStyle=1;fontSize=13;" parent="1" source="jF6Baknl4ynv4NxAoaoa-22" target="jF6Baknl4ynv4NxAoaoa-26" edge="1">
          <mxGeometry relative="1" as="geometry" />
        </mxCell>
        <mxCell id="jF6Baknl4ynv4NxAoaoa-22" value="&lt;span style=&quot;font-size: 13px;&quot;&gt;&lt;u style=&quot;font-size: 13px;&quot;&gt;Locating&lt;/u&gt;&lt;/span&gt;" style="swimlane;fontStyle=1;childLayout=stackLayout;horizontal=1;startSize=30;horizontalStack=0;resizeParent=1;resizeParentMax=0;resizeLast=0;collapsible=1;marginBottom=0;whiteSpace=wrap;html=1;fillColor=#dae8fc;strokeColor=#6c8ebf;fontSize=13;" parent="1" vertex="1">
          <mxGeometry x="390" y="440" width="120" height="90" as="geometry" />
        </mxCell>
        <mxCell id="jF6Baknl4ynv4NxAoaoa-23" value="state = &quot;locating&quot;" style="text;strokeColor=none;fillColor=none;align=left;verticalAlign=middle;spacingLeft=4;spacingRight=4;overflow=hidden;points=[[0,0.5],[1,0.5]];portConstraint=eastwest;rotatable=0;whiteSpace=wrap;html=1;fontStyle=1;fontSize=13;" parent="jF6Baknl4ynv4NxAoaoa-22" vertex="1">
          <mxGeometry y="30" width="120" height="30" as="geometry" />
        </mxCell>
        <mxCell id="jF6Baknl4ynv4NxAoaoa-24" value="velocity = [0,0]" style="text;strokeColor=none;fillColor=none;align=left;verticalAlign=middle;spacingLeft=4;spacingRight=4;overflow=hidden;points=[[0,0.5],[1,0.5]];portConstraint=eastwest;rotatable=0;whiteSpace=wrap;html=1;fontStyle=1;fontSize=13;" parent="jF6Baknl4ynv4NxAoaoa-22" vertex="1">
          <mxGeometry y="60" width="120" height="30" as="geometry" />
        </mxCell>
        <mxCell id="jF6Baknl4ynv4NxAoaoa-25" style="edgeStyle=orthogonalEdgeStyle;rounded=0;orthogonalLoop=1;jettySize=auto;html=1;exitX=1;exitY=0.5;exitDx=0;exitDy=0;entryX=0;entryY=0.5;entryDx=0;entryDy=0;fontStyle=1;fontSize=13;" parent="1" source="jF6Baknl4ynv4NxAoaoa-26" target="jF6Baknl4ynv4NxAoaoa-28" edge="1">
          <mxGeometry relative="1" as="geometry" />
        </mxCell>
        <mxCell id="jF6Baknl4ynv4NxAoaoa-26" value="Request Image" style="rounded=1;whiteSpace=wrap;html=1;fontStyle=1;fontSize=13;" parent="1" vertex="1">
          <mxGeometry x="421.25" y="560" width="57.5" height="30" as="geometry" />
        </mxCell>
        <mxCell id="jF6Baknl4ynv4NxAoaoa-27" style="edgeStyle=orthogonalEdgeStyle;rounded=0;orthogonalLoop=1;jettySize=auto;html=1;exitX=0.5;exitY=1;exitDx=0;exitDy=0;entryX=0.5;entryY=0;entryDx=0;entryDy=0;fontStyle=1;fontSize=13;" parent="1" source="jF6Baknl4ynv4NxAoaoa-28" target="jF6Baknl4ynv4NxAoaoa-30" edge="1">
          <mxGeometry relative="1" as="geometry" />
        </mxCell>
        <mxCell id="jF6Baknl4ynv4NxAoaoa-28" value="Inference" style="rounded=1;whiteSpace=wrap;html=1;fontStyle=1;fontSize=13;" parent="1" vertex="1">
          <mxGeometry x="550" y="560" width="70" height="30" as="geometry" />
        </mxCell>
        <mxCell id="jF6Baknl4ynv4NxAoaoa-29" style="edgeStyle=orthogonalEdgeStyle;rounded=0;orthogonalLoop=1;jettySize=auto;html=1;exitX=0;exitY=0.5;exitDx=0;exitDy=0;entryX=1;entryY=0.5;entryDx=0;entryDy=0;fontStyle=1;fontSize=13;" parent="1" source="jF6Baknl4ynv4NxAoaoa-30" target="jF6Baknl4ynv4NxAoaoa-38" edge="1">
          <mxGeometry relative="1" as="geometry" />
        </mxCell>
        <mxCell id="jF6Baknl4ynv4NxAoaoa-30" value="Homography" style="rounded=1;whiteSpace=wrap;html=1;fontStyle=1;fontSize=13;" parent="1" vertex="1">
          <mxGeometry x="540" y="705" width="90" height="30" as="geometry" />
        </mxCell>
        <mxCell id="jF6Baknl4ynv4NxAoaoa-31" style="edgeStyle=orthogonalEdgeStyle;rounded=0;orthogonalLoop=1;jettySize=auto;html=1;exitX=0.5;exitY=0;exitDx=0;exitDy=0;entryX=0.5;entryY=1;entryDx=0;entryDy=0;fontStyle=1;fontSize=13;" parent="1" source="jF6Baknl4ynv4NxAoaoa-32" target="jF6Baknl4ynv4NxAoaoa-26" edge="1">
          <mxGeometry relative="1" as="geometry" />
        </mxCell>
        <mxCell id="jF6Baknl4ynv4NxAoaoa-32" value="Move X" style="rounded=1;whiteSpace=wrap;html=1;fontStyle=1;fontSize=13;" parent="1" vertex="1">
          <mxGeometry x="417.5" y="620" width="65" height="25" as="geometry" />
        </mxCell>
        <mxCell id="jF6Baknl4ynv4NxAoaoa-34" style="edgeStyle=orthogonalEdgeStyle;rounded=0;orthogonalLoop=1;jettySize=auto;html=1;exitX=0.5;exitY=0;exitDx=0;exitDy=0;entryX=0.5;entryY=1;entryDx=0;entryDy=0;fontStyle=1;fontSize=13;" parent="1" source="jF6Baknl4ynv4NxAoaoa-38" target="jF6Baknl4ynv4NxAoaoa-32" edge="1">
          <mxGeometry relative="1" as="geometry" />
        </mxCell>
        <mxCell id="jF6Baknl4ynv4NxAoaoa-35" value="No" style="edgeLabel;html=1;align=center;verticalAlign=middle;resizable=0;points=[];fontStyle=1;fontSize=13;" parent="jF6Baknl4ynv4NxAoaoa-34" vertex="1" connectable="0">
          <mxGeometry x="-0.2745" y="2" relative="1" as="geometry">
            <mxPoint as="offset" />
          </mxGeometry>
        </mxCell>
        <mxCell id="jF6Baknl4ynv4NxAoaoa-36" style="edgeStyle=orthogonalEdgeStyle;rounded=0;orthogonalLoop=1;jettySize=auto;html=1;exitX=0;exitY=0.5;exitDx=0;exitDy=0;entryX=1;entryY=0.5;entryDx=0;entryDy=0;fontStyle=1;fontSize=13;" parent="1" source="jF6Baknl4ynv4NxAoaoa-38" target="jF6Baknl4ynv4NxAoaoa-40" edge="1">
          <mxGeometry relative="1" as="geometry" />
        </mxCell>
        <mxCell id="jF6Baknl4ynv4NxAoaoa-37" value="Yes" style="edgeLabel;html=1;align=center;verticalAlign=middle;resizable=0;points=[];fontStyle=1;fontSize=13;" parent="jF6Baknl4ynv4NxAoaoa-36" vertex="1" connectable="0">
          <mxGeometry x="-0.0571" y="1" relative="1" as="geometry">
            <mxPoint as="offset" />
          </mxGeometry>
        </mxCell>
        <mxCell id="jF6Baknl4ynv4NxAoaoa-38" value="Aligned on Y?" style="rhombus;whiteSpace=wrap;html=1;fillColor=#e1d5e7;strokeColor=#9673a6;fontStyle=1;fontSize=13;" parent="1" vertex="1">
          <mxGeometry x="390" y="690" width="120" height="60" as="geometry" />
        </mxCell>
        <mxCell id="jF6Baknl4ynv4NxAoaoa-39" style="edgeStyle=orthogonalEdgeStyle;rounded=0;orthogonalLoop=1;jettySize=auto;html=1;exitX=0.5;exitY=0;exitDx=0;exitDy=0;entryX=0.5;entryY=1;entryDx=0;entryDy=0;fontStyle=1;fontSize=13;" parent="1" source="jF6Baknl4ynv4NxAoaoa-40" target="jF6Baknl4ynv4NxAoaoa-42" edge="1">
          <mxGeometry relative="1" as="geometry" />
        </mxCell>
        <mxCell id="jF6Baknl4ynv4NxAoaoa-40" value="Move Y Axis" style="rounded=1;whiteSpace=wrap;html=1;fillColor=#d5e8d4;strokeColor=#82b366;fontStyle=1;fontSize=13;" parent="1" vertex="1">
          <mxGeometry x="260" y="705" width="80" height="30" as="geometry" />
        </mxCell>
        <mxCell id="jF6Baknl4ynv4NxAoaoa-46" style="edgeStyle=orthogonalEdgeStyle;rounded=0;orthogonalLoop=1;jettySize=auto;html=1;exitX=0.5;exitY=0;exitDx=0;exitDy=0;fontStyle=1;fontSize=13;" parent="1" source="jF6Baknl4ynv4NxAoaoa-42" target="jF6Baknl4ynv4NxAoaoa-43" edge="1">
          <mxGeometry relative="1" as="geometry" />
        </mxCell>
        <mxCell id="jF6Baknl4ynv4NxAoaoa-42" value="Remove Weed" style="rounded=1;whiteSpace=wrap;html=1;fillColor=#d5e8d4;strokeColor=#82b366;fontStyle=1;fontSize=13;" parent="1" vertex="1">
          <mxGeometry x="255" y="640" width="90" height="30" as="geometry" />
        </mxCell>
        <mxCell id="jF6Baknl4ynv4NxAoaoa-48" style="edgeStyle=orthogonalEdgeStyle;rounded=0;orthogonalLoop=1;jettySize=auto;html=1;exitX=0.5;exitY=0;exitDx=0;exitDy=0;entryX=0.5;entryY=1;entryDx=0;entryDy=0;fontStyle=1;fontSize=13;" parent="1" source="jF6Baknl4ynv4NxAoaoa-43" target="jF6Baknl4ynv4NxAoaoa-47" edge="1">
          <mxGeometry relative="1" as="geometry" />
        </mxCell>
        <mxCell id="jF6Baknl4ynv4NxAoaoa-43" value="&lt;span style=&quot;font-size: 13px;&quot;&gt;&lt;u style=&quot;font-size: 13px;&quot;&gt;Waiting&lt;/u&gt;&lt;/span&gt;" style="swimlane;fontStyle=1;childLayout=stackLayout;horizontal=1;startSize=30;horizontalStack=0;resizeParent=1;resizeParentMax=0;resizeLast=0;collapsible=1;marginBottom=0;whiteSpace=wrap;html=1;fillColor=#dae8fc;strokeColor=#6c8ebf;fontSize=13;" parent="1" vertex="1">
          <mxGeometry x="240" y="520" width="120" height="90" as="geometry" />
        </mxCell>
        <mxCell id="jF6Baknl4ynv4NxAoaoa-44" value="state = &quot;waiting&quot;" style="text;strokeColor=none;fillColor=none;align=left;verticalAlign=middle;spacingLeft=4;spacingRight=4;overflow=hidden;points=[[0,0.5],[1,0.5]];portConstraint=eastwest;rotatable=0;whiteSpace=wrap;html=1;fontStyle=1;fontSize=13;" parent="jF6Baknl4ynv4NxAoaoa-43" vertex="1">
          <mxGeometry y="30" width="120" height="30" as="geometry" />
        </mxCell>
        <mxCell id="jF6Baknl4ynv4NxAoaoa-45" value="velocity = [0,0]" style="text;strokeColor=none;fillColor=none;align=left;verticalAlign=middle;spacingLeft=4;spacingRight=4;overflow=hidden;points=[[0,0.5],[1,0.5]];portConstraint=eastwest;rotatable=0;whiteSpace=wrap;html=1;fontStyle=1;fontSize=13;" parent="jF6Baknl4ynv4NxAoaoa-43" vertex="1">
          <mxGeometry y="60" width="120" height="30" as="geometry" />
        </mxCell>
        <mxCell id="jF6Baknl4ynv4NxAoaoa-49" style="edgeStyle=orthogonalEdgeStyle;rounded=0;orthogonalLoop=1;jettySize=auto;html=1;exitX=0.5;exitY=0;exitDx=0;exitDy=0;entryX=0;entryY=0.5;entryDx=0;entryDy=0;fontStyle=1;fontSize=13;" parent="1" source="jF6Baknl4ynv4NxAoaoa-47" target="jF6Baknl4ynv4NxAoaoa-9" edge="1">
          <mxGeometry relative="1" as="geometry" />
        </mxCell>
        <mxCell id="jF6Baknl4ynv4NxAoaoa-50" value="Yes" style="edgeLabel;html=1;align=center;verticalAlign=middle;resizable=0;points=[];fontStyle=1;fontSize=13;" parent="jF6Baknl4ynv4NxAoaoa-49" vertex="1" connectable="0">
          <mxGeometry x="-0.507" relative="1" as="geometry">
            <mxPoint as="offset" />
          </mxGeometry>
        </mxCell>
        <mxCell id="jF6Baknl4ynv4NxAoaoa-51" style="edgeStyle=orthogonalEdgeStyle;rounded=0;orthogonalLoop=1;jettySize=auto;html=1;exitX=0;exitY=0.5;exitDx=0;exitDy=0;entryX=0;entryY=0.5;entryDx=0;entryDy=0;fontStyle=1;fontSize=13;" parent="1" source="jF6Baknl4ynv4NxAoaoa-47" target="jF6Baknl4ynv4NxAoaoa-6" edge="1">
          <mxGeometry relative="1" as="geometry" />
        </mxCell>
        <mxCell id="jF6Baknl4ynv4NxAoaoa-52" value="No" style="edgeLabel;html=1;align=center;verticalAlign=middle;resizable=0;points=[];fontStyle=1;fontSize=13;" parent="jF6Baknl4ynv4NxAoaoa-51" vertex="1" connectable="0">
          <mxGeometry x="-0.3876" relative="1" as="geometry">
            <mxPoint as="offset" />
          </mxGeometry>
        </mxCell>
        <mxCell id="jF6Baknl4ynv4NxAoaoa-47" value="State returned?" style="rhombus;whiteSpace=wrap;html=1;fillColor=#e1d5e7;strokeColor=#9673a6;fontStyle=1;fontSize=13;" parent="1" vertex="1">
          <mxGeometry x="243.75" y="430" width="112.5" height="50" as="geometry" />
        </mxCell>
        <mxCell id="jF6Baknl4ynv4NxAoaoa-53" value="Request Image" style="rounded=1;whiteSpace=wrap;html=1;fillColor=#d5e8d4;strokeColor=#82b366;fontStyle=1;fontSize=13;" parent="1" vertex="1">
          <mxGeometry x="570" y="340" width="60" height="30" as="geometry" />
        </mxCell>
        <mxCell id="jF6Baknl4ynv4NxAoaoa-54" value="Inference" style="rounded=1;whiteSpace=wrap;html=1;fillColor=#d5e8d4;strokeColor=#82b366;fontStyle=1;fontSize=13;" parent="1" vertex="1">
          <mxGeometry x="662.5" y="340" width="60" height="30" as="geometry" />
        </mxCell>
        <mxCell id="jF6Baknl4ynv4NxAoaoa-55" value="Inference" style="rounded=1;whiteSpace=wrap;html=1;fillColor=#d5e8d4;strokeColor=#82b366;fontStyle=1;fontSize=13;" parent="1" vertex="1">
          <mxGeometry x="550" y="560" width="70" height="30" as="geometry" />
        </mxCell>
        <mxCell id="jF6Baknl4ynv4NxAoaoa-56" value="Request Image" style="rounded=1;whiteSpace=wrap;html=1;fillColor=#d5e8d4;strokeColor=#82b366;fontStyle=1;fontSize=13;" parent="1" vertex="1">
          <mxGeometry x="421.25" y="560" width="57.5" height="30" as="geometry" />
        </mxCell>
        <mxCell id="jF6Baknl4ynv4NxAoaoa-57" value="Move X" style="rounded=1;whiteSpace=wrap;html=1;fillColor=#d5e8d4;strokeColor=#82b366;fontStyle=1;fontSize=13;" parent="1" vertex="1">
          <mxGeometry x="417.5" y="620" width="65" height="25" as="geometry" />
        </mxCell>
        <mxCell id="jF6Baknl4ynv4NxAoaoa-58" value="Homography" style="rounded=1;whiteSpace=wrap;html=1;fillColor=#d5e8d4;strokeColor=#82b366;fontStyle=1;fontSize=13;" parent="1" vertex="1">
          <mxGeometry x="540" y="705" width="90" height="30" as="geometry" />
        </mxCell>
        <mxCell id="AswwbYB_JzOathdGm4Od-8" value="" style="swimlane;startSize=0;strokeWidth=2;dashed=1;" vertex="1" parent="1">
          <mxGeometry x="180" y="90" width="610" height="690" as="geometry" />
        </mxCell>
        <mxCell id="AswwbYB_JzOathdGm4Od-2" value="&lt;span style=&quot;font-size: 13px;&quot;&gt;&lt;u style=&quot;font-size: 13px;&quot;&gt;state&lt;/u&gt;&lt;/span&gt;" style="swimlane;fontStyle=1;childLayout=stackLayout;horizontal=1;startSize=30;horizontalStack=0;resizeParent=1;resizeParentMax=0;resizeLast=0;collapsible=1;marginBottom=0;whiteSpace=wrap;html=1;fillColor=#dae8fc;strokeColor=#6c8ebf;fontSize=13;" vertex="1" parent="AswwbYB_JzOathdGm4Od-8">
          <mxGeometry x="483.12" y="70" width="58.75" height="50" as="geometry" />
        </mxCell>
        <mxCell id="AswwbYB_JzOathdGm4Od-5" value="Decision" style="rhombus;whiteSpace=wrap;html=1;fillColor=#e1d5e7;strokeColor=#9673a6;fontStyle=1;fontSize=13;" vertex="1" parent="AswwbYB_JzOathdGm4Od-8">
          <mxGeometry x="467.5" y="130" width="90" height="40" as="geometry" />
        </mxCell>
        <mxCell id="AswwbYB_JzOathdGm4Od-6" value="Process" style="rounded=1;whiteSpace=wrap;html=1;fillColor=#d5e8d4;strokeColor=#82b366;fontStyle=1;fontSize=13;" vertex="1" parent="AswwbYB_JzOathdGm4Od-8">
          <mxGeometry x="480.30999999999995" y="190" width="64.37" height="30" as="geometry" />
        </mxCell>
        <mxCell id="AswwbYB_JzOathdGm4Od-7" value="&lt;font style=&quot;font-size: 14px;&quot;&gt;Legend&lt;/font&gt;" style="swimlane;whiteSpace=wrap;html=1;" vertex="1" parent="AswwbYB_JzOathdGm4Od-8">
          <mxGeometry x="452.5" y="30" width="120" height="200" as="geometry" />
        </mxCell>
        <mxCell id="AswwbYB_JzOathdGm4Od-9" value="&lt;b style=&quot;font-size: 22px;&quot;&gt;&lt;u style=&quot;font-size: 22px;&quot;&gt;&lt;font style=&quot;font-size: 22px;&quot;&gt;Pi State Diagram&lt;/font&gt;&lt;/u&gt;&lt;/b&gt;" style="text;html=1;align=center;verticalAlign=middle;whiteSpace=wrap;rounded=0;fontSize=22;" vertex="1" parent="AswwbYB_JzOathdGm4Od-8">
          <mxGeometry x="10" y="10" width="190" height="30" as="geometry" />
        </mxCell>
      </root>
    </mxGraphModel>
  </diagram>
</mxfile>
